<?xml version="1.0" ?><!DOCTYPE svg  PUBLIC '-//W3C//DTD SVG 1.1//EN'  'http://www.w3.org/Graphics/SVG/1.1/DTD/svg11.dtd'><svg height="100%" style="fill-rule:evenodd;clip-rule:evenodd;stroke-linejoin:round;stroke-miterlimit:2;" version="1.1" viewBox="0 0 128 128" width="100%" xml:space="preserve" xmlns="http://www.w3.org/2000/svg" xmlns:serif="http://www.serif.com/" xmlns:xlink="http://www.w3.org/1999/xlink"><g id="Icon"/><path d="M65.719,59.203c-0.965,-0.914 -2.475,-0.914 -3.44,-0c-6.091,5.774 -26.279,24.907 -26.279,24.907l-0,30.112c0,1.002 0.402,1.963 1.118,2.672c0.716,0.708 1.688,1.106 2.7,1.106c10.033,-0 38.331,-0 48.364,-0c1.012,0 1.984,-0.398 2.7,-1.106c0.716,-0.709 1.118,-1.67 1.118,-2.672l-0,-30.11c-0,0 -20.189,-19.135 -26.281,-24.909Z" style="fill:#eeefef;"/><path d="M90,82.217l0,30.005c-0,1.002 -0.402,1.963 -1.118,2.672c-0.716,0.708 -1.688,1.106 -2.7,1.106c-10.033,-0 -38.331,-0 -48.364,-0c-0.528,0 -1.044,-0.108 -1.519,-0.312c0.19,0.446 0.467,0.857 0.819,1.206c0.716,0.708 1.688,1.106 2.7,1.106c10.033,-0 38.331,-0 48.364,-0c1.012,0 1.984,-0.398 2.7,-1.106c0.716,-0.709 1.118,-1.67 1.118,-2.672l-0,-30.11l-2,-1.895Zm-27.749,-22.987l-26.251,24.88l0,1.948l27.238,-25.817c0.985,-0.932 2.537,-0.932 3.522,0l-1.013,-1.011c-0.981,-0.917 -2.515,-0.917 -3.496,-0Z" style="fill:#e0e1e0;"/><path d="M80,118l1,-0l0,-8.586l2.414,-2.414l1.757,0c-0.259,-0.289 -0.462,-0.627 -0.594,-1l-2.163,0l-2.414,2.414l-0,9.586Zm-6,-0l1,-0l-0,-13.171c1.165,-0.412 2,-1.524 2,-2.829c-0,-1.084 -0.576,-2.034 -1.439,-2.561c0.279,0.454 0.439,0.989 0.439,1.561c0,1.305 -0.835,2.417 -2,2.829l0,14.171Zm-6,-0l1,-0l-0,-24.586l5.707,-5.707l0.007,0.004c0.389,0.185 0.826,0.289 1.286,0.289l0.01,-0c1.651,-0.005 2.99,-1.348 2.99,-3c0,-1.059 -0.549,-1.99 -1.379,-2.524l-0.06,-0.038c0.279,0.455 0.439,0.99 0.439,1.562c0,1.652 -1.339,2.995 -2.99,3l-0.01,-0c-0.46,-0 -0.897,-0.104 -1.286,-0.289l-0.007,-0.004l-5.707,5.707l0,25.586Zm-6,-0l1,-0l0,-25c0,-0.265 -0.105,-0.52 -0.293,-0.707l-6,-6c0.188,-0.391 0.293,-0.83 0.293,-1.293c0,-1.061 -0.552,-1.994 -1.384,-2.527l-0.055,-0.034c0.279,0.454 0.439,0.989 0.439,1.561c0,0.463 -0.105,0.902 -0.293,1.293l6,6c0.188,0.187 0.293,0.442 0.293,0.707l0,26Zm-6,-0l1,-0l0,-13.171c1.165,-0.412 2,-1.524 2,-2.829c0,-1.084 -0.576,-2.034 -1.439,-2.561c0.279,0.454 0.439,0.989 0.439,1.561c0,1.305 -0.835,2.417 -2,2.829l0,14.171Zm-6,-0l1,-0l0,-19.586l1.707,-1.707c0.391,0.188 0.83,0.293 1.293,0.293c1.656,-0 3,-1.344 3,-3c0,-1.084 -0.576,-2.034 -1.439,-2.561c0.279,0.454 0.439,0.989 0.439,1.561c0,1.656 -1.344,3 -3,3c-0.463,-0 -0.902,-0.105 -1.293,-0.293l-1.707,1.707l0,20.586Zm-3.414,-11l-1,-1l-1.757,-0c-0.412,1.165 -1.524,2 -2.829,2c-0.572,-0 -1.107,-0.16 -1.561,-0.439c0.527,0.863 1.477,1.439 2.561,1.439c1.305,-0 2.417,-0.835 2.829,-2l1.757,-0Zm42.975,-3.561c0.279,0.454 0.439,0.989 0.439,1.561c0,1.656 -1.344,3 -3,3c-0.572,-0 -1.106,-0.16 -1.561,-0.438c0.527,0.862 1.477,1.438 2.561,1.438c1.656,-0 3,-1.344 3,-3c0,-1.084 -0.576,-2.034 -1.439,-2.561Zm-9.561,4.147l1,-1l0,-8.586c0,-0.265 -0.105,-0.52 -0.293,-0.707l-1,-1c0.188,0.187 0.293,0.442 0.293,0.707l0,10.586Zm-38.224,-0.611c-0.09,0.016 -0.182,0.025 -0.276,0.025c-0.828,-0 -1.5,-0.672 -1.5,-1.5c0,-0.828 0.672,-1.5 1.5,-1.5c0.828,-0 1.5,0.672 1.5,1.5c0,0.094 -0.009,0.186 -0.025,0.276c-0.102,-0.444 -0.5,-0.776 -0.975,-0.776c-0.552,-0 -1,0.448 -1,1c0,0.475 0.332,0.873 0.776,0.975Zm46,-0c-0.09,0.016 -0.182,0.025 -0.276,0.025c-0.828,-0 -1.5,-0.672 -1.5,-1.5c0,-0.828 0.672,-1.5 1.5,-1.5c0.828,-0 1.5,0.672 1.5,1.5c0,0.094 -0.009,0.186 -0.025,0.276c-0.102,-0.444 -0.5,-0.776 -0.975,-0.776c-0.552,-0 -1,0.448 -1,1c0,0.475 0.332,0.873 0.776,0.975Zm-44.168,-3.508l-0.047,-0.029c0.108,0.176 0.519,1.009 0.439,1.562l0.829,-0l-0.02,-0.054c-0.23,-0.614 -0.656,-1.132 -1.201,-1.479Zm27.83,0.094c0.357,0.584 0.908,1.036 1.562,1.268l0,-0.829c-0.583,0.017 -1.274,-0.219 -1.562,-0.439Zm-18,0c0.357,0.584 0.908,1.036 1.562,1.268l0,-0.829c-0.712,-0.021 -1.259,-0.244 -1.562,-0.439Zm2.338,-0.586c-0.09,0.016 -0.182,0.025 -0.276,0.025c-0.828,-0 -1.5,-0.672 -1.5,-1.5c0,-0.828 0.672,-1.5 1.5,-1.5c0.828,-0 1.5,0.672 1.5,1.5c0,0.094 -0.009,0.186 -0.025,0.276c-0.102,-0.444 -0.5,-0.776 -0.975,-0.776c-0.552,-0 -1,0.448 -1,1c0,0.475 0.332,0.873 0.776,0.975Zm18,-0c-0.09,0.016 -0.182,0.025 -0.276,0.025c-0.828,-0 -1.5,-0.672 -1.5,-1.5c0,-0.828 0.672,-1.5 1.5,-1.5c0.828,-0 1.5,0.672 1.5,1.5c0,0.094 -0.009,0.186 -0.025,0.276c-0.102,-0.444 -0.5,-0.776 -0.975,-0.776c-0.552,-0 -1,0.448 -1,1c0,0.475 0.332,0.873 0.776,0.975Zm-0.337,-7.414c0.527,0.863 1.477,1.439 2.561,1.439c0.463,-0 0.902,-0.105 1.293,-0.293l-1,-1c-0.391,0.188 -0.83,0.293 -1.293,0.293c-0.572,-0 -1.107,-0.16 -1.561,-0.439Zm4.177,-4.088l-0.055,-0.034c0.279,0.454 0.439,0.989 0.439,1.561c0,0.463 -0.105,0.902 -0.293,1.293l1,1l0.018,-0.037c0.176,-0.382 0.275,-0.807 0.275,-1.256c0,-1.061 -0.552,-1.994 -1.384,-2.527Zm-23.84,3.502c-0.09,0.016 -0.182,0.025 -0.276,0.025c-0.828,-0 -1.5,-0.672 -1.5,-1.5c0,-0.828 0.672,-1.5 1.5,-1.5c0.828,-0 1.5,0.672 1.5,1.5c0,0.094 -0.009,0.186 -0.025,0.276c-0.102,-0.444 -0.5,-0.776 -0.975,-0.776c-0.552,-0 -1,0.448 -1,1c0,0.475 0.332,0.873 0.776,0.975Zm22,-0c-0.09,0.016 -0.182,0.025 -0.276,0.025c-0.828,-0 -1.5,-0.672 -1.5,-1.5c0,-0.828 0.672,-1.5 1.5,-1.5c0.828,-0 1.5,0.672 1.5,1.5c0,0.094 -0.009,0.186 -0.025,0.276c-0.102,-0.444 -0.5,-0.776 -0.975,-0.776c-0.552,-0 -1,0.448 -1,1c0,0.475 0.332,0.873 0.776,0.975Zm-24.337,-8.414c0.527,0.863 1.477,1.439 2.561,1.439c0.463,-0 0.902,-0.105 1.293,-0.293l-1,-1c-0.391,0.188 -0.83,0.293 -1.293,0.293c-0.572,-0 -1.107,-0.16 -1.561,-0.439Zm2.337,-0.586c-0.09,0.016 -0.182,0.025 -0.276,0.025c-0.828,-0 -1.5,-0.672 -1.5,-1.5c0,-0.828 0.672,-1.5 1.5,-1.5c0.828,-0 1.5,0.672 1.5,1.5c0,0.094 -0.009,0.186 -0.025,0.276c-0.102,-0.444 -0.5,-0.776 -0.975,-0.776c-0.552,-0 -1,0.448 -1,1c0,0.475 0.332,0.873 0.776,0.975Zm22,-0c-0.09,0.016 -0.182,0.025 -0.276,0.025c-0.828,-0 -1.5,-0.672 -1.5,-1.5c0,-0.828 0.672,-1.5 1.5,-1.5c0.828,-0 1.5,0.672 1.5,1.5c0,0.094 -0.009,0.186 -0.025,0.276c-0.102,-0.444 -0.5,-0.776 -0.975,-0.776c-0.552,-0 -1,0.448 -1,1c0,0.475 0.332,0.873 0.776,0.975Z" style="fill:#e0e1e0;"/><path d="M34.385,85.641c-0,0 28.217,-26.744 27.853,-26.4c0.985,-0.932 2.537,-0.932 3.522,0l27.853,26.4c1.267,1.204 3.283,1.163 4.499,-0.09c1.216,-1.254 1.175,-3.248 -0.092,-4.452l-31.817,-30.222c-1.232,-1.169 -3.176,-1.169 -4.407,0l-31.818,30.222c-1.267,1.204 -1.308,3.198 -0.092,4.452c1.216,1.253 3.232,1.294 4.499,0.09Z" style="fill:#424243;"/><path d="M93.613,85.641c1.267,1.204 3.283,1.163 4.499,-0.09c1.216,-1.254 1.175,-3.248 -0.092,-4.452l-0.676,-0.642c0.94,1.213 0.87,2.957 -0.232,4.094c-1.216,1.253 -3.259,1.32 -4.525,0.117l1.026,0.973Zm-28.853,-27.4c-0.985,-0.932 -2.537,-0.932 -3.522,0c0.364,-0.344 -27.853,26.4 -27.853,26.4c-1.079,1.025 -2.7,1.148 -3.909,0.388c0.116,0.184 0.252,0.359 0.41,0.522c1.216,1.253 3.232,1.294 4.499,0.09c-0,0 28.217,-26.744 27.853,-26.4c0.985,-0.932 2.537,-0.932 3.522,0l-1,-1Z" style="fill:#202020;"/><path d="M38,31c-0,-1.061 -0.421,-2.078 -1.172,-2.828c-0.75,-0.751 -1.767,-1.172 -2.828,-1.172c-3.234,-0 -7.766,-0 -11,-0c-1.061,-0 -2.078,0.421 -2.828,1.172c-0.751,0.75 -1.172,1.767 -1.172,2.828c0,5.534 0,15.466 0,21c0,1.061 0.421,2.078 1.172,2.828c0.75,0.751 1.767,1.172 2.828,1.172c3.234,-0 7.766,-0 11,-0c1.061,0 2.078,-0.421 2.828,-1.172c0.751,-0.75 1.172,-1.767 1.172,-2.828c-0,-5.534 -0,-15.466 -0,-21Z" style="fill:#424243;"/><path d="M36.284,27.716c0.463,0.666 0.716,1.462 0.716,2.284c-0,5.534 -0,15.466 0,21c-0,1.061 -0.421,2.078 -1.172,2.828c-0.75,0.751 -1.767,1.172 -2.828,1.172c-3.234,-0 -7.766,-0 -11,-0c-0.822,0 -1.618,-0.253 -2.284,-0.716c0.135,0.193 0.287,0.376 0.456,0.544c0.75,0.751 1.767,1.172 2.828,1.172c3.234,-0 7.766,-0 11,-0c1.061,0 2.078,-0.421 2.828,-1.172c0.751,-0.75 1.172,-1.767 1.172,-2.828c-0,-5.534 -0,-15.466 -0,-21c-0,-1.061 -0.421,-2.078 -1.172,-2.828c-0.168,-0.169 -0.351,-0.321 -0.544,-0.456Zm-5.222,20.723c0.862,0.527 1.438,1.477 1.438,2.561c-0,1.656 -1.344,3 -3,3c-1.084,0 -2.034,-0.576 -2.562,-1.438c0.455,0.278 0.99,0.438 1.562,0.438c1.656,0 3,-1.344 3,-3c-0,-0.572 -0.16,-1.107 -0.438,-1.561Zm-1.126,-17.375c0.616,0.187 1.064,0.759 1.064,1.436l-0,15.842c-0.256,-0.385 -0.599,-0.708 -1,-0.94l-0,-15.902c-0,-0.152 -0.022,-0.298 -0.064,-0.436Z" style="fill:#202020;"/><path d="M27,47.402l0,-15.902c0,-0.828 0.672,-1.5 1.5,-1.5c0.828,0 1.5,0.672 1.5,1.5l-0,15.902c0.896,0.519 1.5,1.488 1.5,2.598c-0,1.656 -1.344,3 -3,3c-1.656,0 -3,-1.344 -3,-3c-0,-1.11 0.604,-2.079 1.5,-2.598Z" style="fill:#fff;"/><path d="M30.062,47.439c0.862,0.527 1.438,1.477 1.438,2.561c-0,1.656 -1.344,3 -3,3c-1.084,0 -2.034,-0.576 -2.562,-1.438c0.455,0.278 0.99,0.438 1.562,0.438c1.656,0 3,-1.344 3,-3c-0,-0.572 -0.16,-1.107 -0.438,-1.561Zm-1.126,-17.375c0.616,0.187 1.064,0.759 1.064,1.436l-0,15.842c-0.256,-0.385 -0.599,-0.708 -1,-0.94l-0,-15.902c-0,-0.152 -0.022,-0.298 -0.064,-0.436Z" style="fill:#eeefef;"/><path d="M27,47.402l0,-12.395c0,-0.828 0.672,-1.5 1.5,-1.5c0.828,0 1.5,0.672 1.5,1.5l-0,12.395c0.896,0.519 1.5,1.488 1.5,2.598c-0,1.656 -1.344,3 -3,3c-1.656,0 -3,-1.344 -3,-3c-0,-1.11 0.604,-2.079 1.5,-2.598Z" style="fill:#e64c25;"/><path d="M30.062,47.439c0.862,0.527 1.438,1.477 1.438,2.561c-0,1.656 -1.344,3 -3,3c-1.076,0 -2.021,-0.568 -2.55,-1.42l-0.012,-0.018c0.455,0.278 0.99,0.438 1.562,0.438c1.656,0 3,-1.344 3,-3c-0,-0.572 -0.16,-1.107 -0.438,-1.561Zm-1.062,-13.846c0.583,0.206 1,0.761 1,1.414l-0,12.335c-0.256,-0.385 -0.599,-0.708 -1,-0.94l-0,-12.809Z" style="fill:#d94527;"/><path d="M30,44.892c-0,-0 -0.741,-0 -0.741,-0c-0.276,-0 -0.5,0.224 -0.5,0.5c0,0.276 0.224,0.5 0.5,0.5l0.741,-0l-0,-1Zm-0,-3.131l-0.741,0c-0.276,0 -0.5,0.224 -0.5,0.5c0,0.276 0.224,0.5 0.5,0.5l0.741,0c-0,0 -0,-1 -0,-1Zm-0,-3.13l-0.741,-0c-0.276,-0 -0.5,0.224 -0.5,0.5c0,0.276 0.224,0.5 0.5,0.5l0.741,-0c-0,-0 -0,-1 -0,-1Zm-0,-3.131c-0,0 -0.741,0 -0.741,0c-0.276,0 -0.5,0.224 -0.5,0.5c0,0.276 0.224,0.5 0.5,0.5l0.741,0l-0,-1Zm-0,-2.13l-0,-1c-0,0 -0.741,0 -0.741,0c-0.276,0 -0.5,0.224 -0.5,0.5c0,0.276 0.224,0.5 0.5,0.5l0.741,0Z" style="fill:#424243;"/><path d="M72.5,14c-0,-2.209 -1.791,-4 -4,-4c-2.713,-0 -6.287,-0 -9,-0c-2.209,-0 -4,1.791 -4,4c0,5.534 0,15.466 0,21c0,2.209 1.791,4 4,4c2.713,-0 6.287,-0 9,-0c2.209,0 4,-1.791 4,-4c0,-5.534 0,-15.466 0,-21Z" style="fill:#424243;"/><path d="M70.784,10.716c0.451,0.647 0.716,1.435 0.716,2.284c0,5.534 0,15.466 -0,21c-0,2.209 -1.791,4 -4,4c-2.713,-0 -6.287,-0 -9,-0c-0.849,0 -1.637,-0.265 -2.284,-0.716c0.723,1.037 1.924,1.716 3.284,1.716c2.713,-0 6.287,-0 9,-0c2.209,0 4,-1.791 4,-4c0,-5.534 0,-15.466 0,-21c-0,-1.36 -0.679,-2.561 -1.716,-3.284Zm-2.249,14.198c0.016,0.205 -0.031,0.413 -0.139,0.593l-3.975,6.625l-0.303,2.428c-0.012,0.094 0.043,0.183 0.133,0.214c0.089,0.031 0.188,-0.005 0.236,-0.086c1.09,-1.816 3.718,-6.197 4.909,-8.181c0.151,-0.251 0.184,-0.556 0.09,-0.834c-0.094,-0.278 -0.304,-0.5 -0.576,-0.609l-0.375,-0.15Zm-7.989,0.204c0.005,0.07 0.018,0.14 0.038,0.208c0.088,0.292 0.304,0.529 0.587,0.642c0.964,0.386 2.3,0.921 3.112,1.245c0.338,0.136 0.569,0.44 0.619,0.787l-0,0c-0.048,-0.615 -0.361,-1.284 -0.719,-1.427l-3.637,-1.455Zm4.51,-6.84l-0.973,3.891c-0.122,0.485 0.134,0.985 0.599,1.171l0.912,0.365c-0.323,-0.235 -0.483,-0.649 -0.382,-1.052c0.368,-1.472 1.125,-4.501 1.526,-6.104c0.023,-0.093 -0.024,-0.19 -0.111,-0.23c-0.088,-0.04 -0.192,-0.012 -0.247,0.067l-1.324,1.892Z" style="fill:#202020;"/><path d="M65.738,15.549c0.023,-0.093 -0.024,-0.19 -0.111,-0.23c-0.088,-0.04 -0.192,-0.012 -0.247,0.067c-1.295,1.849 -4.277,6.11 -5.657,8.081c-0.175,0.25 -0.226,0.566 -0.139,0.859c0.088,0.292 0.304,0.529 0.587,0.642c0.964,0.386 2.3,0.921 3.112,1.245c0.423,0.169 0.678,0.602 0.621,1.053c-0.184,1.472 -0.586,4.694 -0.786,6.294c-0.012,0.094 0.043,0.183 0.133,0.214c0.089,0.031 0.188,-0.005 0.236,-0.086c1.09,-1.816 3.718,-6.197 4.909,-8.181c0.151,-0.251 0.184,-0.556 0.09,-0.834c-0.094,-0.278 -0.304,-0.5 -0.576,-0.609c-0.934,-0.374 -2.257,-0.903 -3.1,-1.24c-0.464,-0.186 -0.72,-0.686 -0.598,-1.171c0.368,-1.472 1.125,-4.501 1.526,-6.104Z" style="fill:#fbef57;"/><path d="M67.535,23.914c0.016,0.205 -0.031,0.413 -0.139,0.593l-3.975,6.625l-0.303,2.428c-0.012,0.094 0.043,0.183 0.133,0.214c0.089,0.031 0.188,-0.005 0.236,-0.086c1.09,-1.816 3.718,-6.197 4.909,-8.181c0.151,-0.251 0.184,-0.556 0.09,-0.834c-0.094,-0.278 -0.304,-0.5 -0.576,-0.609l-0.375,-0.15Zm-7.989,0.204c0.005,0.07 0.018,0.14 0.038,0.208c0.088,0.292 0.304,0.529 0.587,0.642c0.964,0.386 2.3,0.921 3.112,1.245c0.338,0.136 0.569,0.44 0.619,0.787l-0,0c-0.048,-0.615 -0.361,-1.284 -0.719,-1.427l-3.637,-1.455Zm4.51,-6.84l-0.973,3.891c-0.122,0.485 0.134,0.985 0.599,1.171l0.912,0.365l0,-0c-0.323,-0.235 -0.483,-0.649 -0.382,-1.052c0.368,-1.472 1.125,-4.501 1.526,-6.104c0.023,-0.093 -0.024,-0.19 -0.111,-0.23c-0.088,-0.04 -0.192,-0.012 -0.247,0.067l-1.324,1.892Z" style="fill:#fcd935;"/><path d="M109,31c-0,-1.061 -0.421,-2.078 -1.172,-2.828c-0.75,-0.751 -1.767,-1.172 -2.828,-1.172c-3.234,-0 -7.766,-0 -11,-0c-1.061,-0 -2.078,0.421 -2.828,1.172c-0.751,0.75 -1.172,1.767 -1.172,2.828c-0,5.534 0,15.466 0,21c0,1.061 0.421,2.078 1.172,2.828c0.75,0.751 1.767,1.172 2.828,1.172c3.234,-0 7.766,-0 11,-0c1.061,0 2.078,-0.421 2.828,-1.172c0.751,-0.75 1.172,-1.767 1.172,-2.828c0,-5.534 0,-15.466 0,-21Z" style="fill:#424243;"/><path d="M107.284,27.716c0.463,0.666 0.716,1.462 0.716,2.284c0,5.534 0,15.466 0,21c-0,1.061 -0.421,2.078 -1.172,2.828c-0.75,0.751 -1.767,1.172 -2.828,1.172c-3.234,-0 -7.766,-0 -11,-0c-0.822,0 -1.618,-0.253 -2.284,-0.716c0.135,0.193 0.287,0.376 0.456,0.544c0.75,0.751 1.767,1.172 2.828,1.172c3.234,-0 7.766,-0 11,-0c1.061,0 2.078,-0.421 2.828,-1.172c0.751,-0.75 1.172,-1.767 1.172,-2.828c0,-5.534 0,-15.466 0,-21c-0,-1.061 -0.421,-2.078 -1.172,-2.828c-0.168,-0.169 -0.351,-0.321 -0.544,-0.456Zm-6.792,3.284c0.816,1.602 3.118,6.202 4.612,10.019c0.828,2.116 1.396,4.008 1.396,5.081c0,3.808 -3.137,6.9 -7,6.9c-1.694,-0 -3.248,-0.594 -4.459,-1.582c1.283,1.574 3.253,2.582 5.459,2.582c3.863,-0 7,-3.092 7,-6.9c0,-1.073 -0.568,-2.965 -1.396,-5.081c-1.842,-4.706 -4.912,-10.602 -4.912,-10.602c-0.133,-0.256 -0.4,-0.417 -0.692,-0.417l-0.008,0Z" style="fill:#202020;"/><path d="M100.192,30.417c-0.133,-0.256 -0.4,-0.417 -0.692,-0.417c-0.292,-0 -0.559,0.161 -0.692,0.417c0,-0 -3.07,5.896 -4.912,10.602c-0.828,2.116 -1.396,4.008 -1.396,5.081c0,3.808 3.137,6.9 7,6.9c3.863,-0 7,-3.092 7,-6.9c0,-1.073 -0.568,-2.965 -1.396,-5.081c-1.842,-4.706 -4.912,-10.602 -4.912,-10.602Z" style="fill:#2898d4;"/><path d="M99.492,30c0.816,1.602 3.118,6.202 4.612,10.019c0.828,2.116 1.396,4.008 1.396,5.081c0,3.808 -3.137,6.9 -7,6.9c-1.694,-0 -3.248,-0.594 -4.459,-1.582c1.283,1.574 3.253,2.582 5.459,2.582c3.863,-0 7,-3.092 7,-6.9c0,-1.073 -0.568,-2.965 -1.396,-5.081c-1.842,-4.706 -4.912,-10.602 -4.912,-10.602c-0.133,-0.256 -0.4,-0.417 -0.692,-0.417l-0.008,0Z" style="fill:#1687c9;"/><path d="M101.787,43c0.049,0.189 0.027,0.398 -0.077,0.581l-3.111,5.444c-0.187,0.326 -0.574,0.466 -0.917,0.354c0.05,0.196 0.177,0.372 0.367,0.48c0.372,0.213 0.848,0.083 1.061,-0.289l3.111,-5.445c0.213,-0.372 0.083,-0.848 -0.29,-1.061c-0.046,-0.027 -0.095,-0.048 -0.144,-0.064Zm1.215,3.601c0.126,0.224 0.199,0.484 0.199,0.761c-0,0.858 -0.698,1.555 -1.556,1.555c-0.312,0 -0.602,-0.092 -0.846,-0.25c0.267,0.474 0.775,0.795 1.357,0.795c0.859,-0 1.556,-0.697 1.556,-1.556c-0,-0.547 -0.283,-1.028 -0.71,-1.305Zm-4.5,-3.389c0.127,0.225 0.199,0.484 0.199,0.761c0,0.858 -0.697,1.555 -1.555,1.555c-0.312,0 -0.602,-0.092 -0.846,-0.25c0.267,0.474 0.775,0.795 1.357,0.795c0.858,-0 1.555,-0.697 1.555,-1.556c0,-0.547 -0.283,-1.028 -0.71,-1.305Z" style="fill:#1687c9;"/><path d="M100.38,42.836l-3.111,5.445c-0.213,0.372 -0.083,0.848 0.29,1.061c0.372,0.213 0.848,0.083 1.061,-0.289l3.111,-5.445c0.213,-0.373 0.083,-0.848 -0.29,-1.061c-0.372,-0.213 -0.848,-0.083 -1.061,0.289Zm1.286,2.997c-0.858,0 -1.555,0.697 -1.555,1.556c-0,0.858 0.697,1.555 1.555,1.555c0.859,0 1.556,-0.697 1.556,-1.555c-0,-0.859 -0.697,-1.556 -1.556,-1.556Zm-4.499,-3.389c-0.859,0 -1.556,0.697 -1.556,1.556c0,0.859 0.697,1.556 1.556,1.556c0.858,-0 1.555,-0.697 1.555,-1.556c0,-0.859 -0.697,-1.556 -1.555,-1.556Z" style="fill:#fff;"/><path d="M101.297,42.483c0.049,0.189 0.027,0.397 -0.077,0.581l-3.111,5.444c-0.187,0.326 -0.574,0.466 -0.917,0.354c0.05,0.196 0.177,0.372 0.367,0.48c0.372,0.213 0.848,0.083 1.061,-0.289l3.111,-5.445c0.213,-0.373 0.083,-0.848 -0.29,-1.061c-0.046,-0.027 -0.095,-0.048 -0.144,-0.064Zm1.215,3.6c0.126,0.225 0.199,0.485 0.199,0.761c-0,0.859 -0.698,1.556 -1.556,1.556c-0.312,0 -0.602,-0.092 -0.846,-0.25c0.267,0.474 0.775,0.794 1.357,0.794c0.859,0 1.556,-0.697 1.556,-1.555c-0,-0.547 -0.283,-1.028 -0.71,-1.306Zm-4.5,-3.389c0.127,0.225 0.199,0.485 0.199,0.762c0,0.858 -0.697,1.555 -1.555,1.555c-0.312,0 -0.602,-0.092 -0.846,-0.25c0.267,0.474 0.775,0.795 1.357,0.795c0.858,-0 1.555,-0.697 1.555,-1.556c0,-0.547 -0.283,-1.028 -0.71,-1.306Z" style="fill:#eeefef;"/><path d="M78,118l2,-0l0,-9.586l2.414,-2.414l1.757,0c0.412,1.165 1.524,2 2.829,2c1.656,0 3,-1.344 3,-3c0,-1.656 -1.344,-3 -3,-3c-1.305,0 -2.417,0.835 -2.829,2l-2.171,0c-0.265,0 -0.52,0.105 -0.707,0.293l-1.293,1.293l0,-8.586c0,-0.265 -0.105,-0.52 -0.293,-0.707l-2,-2c0.188,-0.391 0.293,-0.83 0.293,-1.293c0,-1.656 -1.344,-3 -3,-3c-1.656,-0 -3,1.344 -3,3c0,1.656 1.344,3 3,3c0.463,-0 0.902,-0.105 1.293,-0.293l1.707,1.707c0,0 0,20.586 0,20.586Zm-6,-0l2,-0c0,-0 0,-14.171 0,-14.171c1.165,-0.412 2,-1.524 2,-2.829c0,-1.656 -1.344,-3 -3,-3c-1.656,0 -3,1.344 -3,3c0,1.305 0.835,2.417 2,2.829l0,14.171Zm-6,-0l2,-0l-0,-25.586l5.707,-5.707l0.007,0.004c0.389,0.185 0.826,0.289 1.286,0.289l0.01,-0c1.651,-0.005 2.99,-1.348 2.99,-3c0,-1.652 -1.339,-2.995 -2.99,-3l-0.01,-0c-1.656,-0 -3,1.344 -3,3c0,0.463 0.105,0.902 0.293,1.293l-6,6c-0.188,0.187 -0.293,0.442 -0.293,0.707l0,26Zm-6,-0l2,-0l0,-26c0,-0.265 -0.105,-0.52 -0.293,-0.707l-6,-6c0.188,-0.391 0.293,-0.83 0.293,-1.293c0,-1.656 -1.344,-3 -3,-3c-1.656,-0 -3,1.344 -3,3c0,1.656 1.344,3 3,3c0.463,-0 0.902,-0.105 1.293,-0.293l5.707,5.707l0,25.586Zm-6,-0l2,-0l0,-14.171c1.165,-0.412 2,-1.524 2,-2.829c0,-1.656 -1.344,-3 -3,-3c-1.656,0 -3,1.344 -3,3c0,1.305 0.835,2.417 2,2.829l0,14.171Zm-6,-0l2,-0l0,-20.586l1.707,-1.707c0.391,0.188 0.83,0.293 1.293,0.293c1.656,-0 3,-1.344 3,-3c0,-1.656 -1.344,-3 -3,-3c-1.656,-0 -3,1.344 -3,3c0,0.463 0.105,0.902 0.293,1.293l-2,2c-0.188,0.187 -0.293,0.442 -0.293,0.707l0,8.586l-1.293,-1.293c-0.187,-0.188 -0.442,-0.293 -0.707,-0.293l-2.171,0c-0.412,-1.165 -1.524,-2 -2.829,-2c-1.656,0 -3,1.344 -3,3c0,1.656 1.344,3 3,3c1.305,0 2.417,-0.835 2.829,-2l1.757,0l2.414,2.414l0,9.586Zm39,-14c0.552,0 1,0.448 1,1c0,0.552 -0.448,1 -1,1c-0.552,0 -1,-0.448 -1,-1c0,-0.552 0.448,-1 1,-1Zm-46,0c0.552,0 1,0.448 1,1c0,0.552 -0.448,1 -1,1c-0.552,0 -1,-0.448 -1,-1c0,-0.552 0.448,-1 1,-1Zm32,-4c0.552,0 1,0.448 1,1c0,0.552 -0.448,1 -1,1c-0.552,0 -1,-0.448 -1,-1c0,-0.552 0.448,-1 1,-1Zm-18,0c0.552,0 1,0.448 1,1c0,0.552 -0.448,1 -1,1c-0.552,0 -1,-0.448 -1,-1c0,-0.552 0.448,-1 1,-1Zm20,-8c0.552,0 1,0.448 1,1c0,0.552 -0.448,1 -1,1c-0.552,0 -1,-0.448 -1,-1c0,-0.552 0.448,-1 1,-1Zm-22,0c0.552,0 1,0.448 1,1c0,0.552 -0.448,1 -1,1c-0.552,0 -1,-0.448 -1,-1c0,-0.552 0.448,-1 1,-1Zm0,-9c0.552,0 1,0.448 1,1c0,0.552 -0.448,1 -1,1c-0.552,0 -1,-0.448 -1,-1c0,-0.552 0.448,-1 1,-1Zm22,0l0.006,0c0.549,0.003 0.994,0.45 0.994,1c0,0.55 -0.445,0.997 -0.994,1l-0.006,0c-0.552,0 -1,-0.448 -1,-1c0,-0.552 0.448,-1 1,-1Z" style="fill:#fbef57;"/><path d="M78,118l0,-2l1,-0l0,-8.586l2.414,-2.414l2.163,0c0.132,0.373 0.335,0.711 0.594,1l-1.757,0l-2.414,2.414l0,9.586l-2,-0Zm-6,-0l0,-2l1,-0l0,-13.171c1.165,-0.412 2,-1.524 2,-2.829c0,-0.572 -0.16,-1.107 -0.439,-1.561c0.863,0.527 1.439,1.477 1.439,2.561c0,1.305 -0.835,2.417 -2,2.829l-0,14.171l-2,-0Zm-5,-2l-0,-24.586l5.707,-5.707l0.007,0.004c0.389,0.185 0.826,0.289 1.286,0.289l0.01,-0c1.651,-0.005 2.99,-1.348 2.99,-3c0,-0.572 -0.16,-1.107 -0.439,-1.562l0.06,0.038c0.83,0.534 1.379,1.465 1.379,2.524c-0,1.652 -1.339,2.995 -2.99,3l-0.01,-0c-0.46,-0 -0.897,-0.104 -1.286,-0.289l-0.007,-0.004l-5.707,5.707l-0,25.586l-2,-0l-0,-2l1,-0Zm-6,-0l-0,-25c0,-0.265 -0.105,-0.52 -0.293,-0.707l-6,-6c0.188,-0.391 0.293,-0.83 0.293,-1.293c-0,-0.572 -0.16,-1.107 -0.439,-1.561l0.055,0.034c0.832,0.533 1.384,1.466 1.384,2.527c-0,0.463 -0.105,0.902 -0.293,1.293l6,6c0.188,0.187 0.293,0.442 0.293,0.707l-0,26l-2,-0l1,-2Zm-7,2l-0,-2l1,-0l-0,-13.171c1.165,-0.412 2,-1.524 2,-2.829c-0,-0.572 -0.16,-1.107 -0.439,-1.561c0.863,0.527 1.439,1.477 1.439,2.561c-0,1.305 -0.835,2.417 -2,2.829l-0,14.171l-2,-0Zm-5,-2l-0,-19.586l1.707,-1.707c0.391,0.188 0.83,0.293 1.293,0.293c1.656,-0 3,-1.344 3,-3c-0,-0.572 -0.16,-1.107 -0.439,-1.561c0.863,0.527 1.439,1.477 1.439,2.561c-0,1.656 -1.344,3 -3,3c-0.463,-0 -0.902,-0.105 -1.293,-0.293l-1.707,1.707l-0,20.586l-2,-0l1,-2Zm-3.414,-10l-1,-1l-1.757,-0c-0.412,1.165 -1.524,2 -2.829,2c-0.572,-0 -1.107,-0.16 -1.561,-0.439c0.527,0.863 1.477,1.439 2.561,1.439c1.305,-0 2.417,-0.835 2.829,-2l1.757,-0Zm42.975,-3.561c0.279,0.454 0.439,0.989 0.439,1.561c0,1.656 -1.344,3 -3,3c-0.572,-0 -1.106,-0.16 -1.561,-0.438c0.527,0.862 1.477,1.438 2.561,1.438c1.656,-0 3,-1.344 3,-3c0,-1.084 -0.576,-2.034 -1.439,-2.561Zm-9.561,4.147l1,-1l0,-8.586c0,-0.265 -0.105,-0.52 -0.293,-0.707l-1,-1c0.188,0.187 0.293,0.442 0.293,0.707l0,10.586Zm-38.224,-0.611c-0.09,0.016 -0.182,0.025 -0.276,0.025c-0.828,-0 -1.5,-0.672 -1.5,-1.5c0,-0.828 0.672,-1.5 1.5,-1.5c0.828,-0 1.5,0.672 1.5,1.5c0,0.094 -0.009,0.186 -0.025,0.276c-0.102,-0.444 -0.5,-0.776 -0.975,-0.776c-0.552,-0 -1,0.448 -1,1c0,0.475 0.332,0.873 0.776,0.975Zm46,-0c-0.09,0.016 -0.182,0.025 -0.276,0.025c-0.828,-0 -1.5,-0.672 -1.5,-1.5c0,-0.828 0.672,-1.5 1.5,-1.5c0.828,-0 1.5,0.672 1.5,1.5c0,0.094 -0.009,0.186 -0.025,0.276c-0.102,-0.444 -0.5,-0.776 -0.975,-0.776c-0.552,-0 -1,0.448 -1,1c0,0.475 0.332,0.873 0.776,0.975Zm-44.168,-3.508l-0.047,-0.029c0.108,0.176 0.519,1.009 0.439,1.562l0.829,-0l-0.02,-0.054c-0.23,-0.614 -0.656,-1.132 -1.201,-1.479Zm27.83,0.094c0.357,0.584 0.908,1.036 1.562,1.268l0,-0.829c-0.583,0.017 -1.274,-0.219 -1.562,-0.439Zm-18,0c0.357,0.584 0.908,1.036 1.562,1.268l0,-0.829c-0.712,-0.021 -1.259,-0.244 -1.562,-0.439Zm20.338,-0.586c-0.09,0.016 -0.182,0.025 -0.276,0.025c-0.828,-0 -1.5,-0.672 -1.5,-1.5c-0,-0.828 0.672,-1.5 1.5,-1.5c0.828,-0 1.5,0.672 1.5,1.5c-0,0.094 -0.009,0.186 -0.025,0.276c-0.102,-0.444 -0.5,-0.776 -0.975,-0.776c-0.552,-0 -1,0.448 -1,1c-0,0.475 0.332,0.873 0.776,0.975Zm-18,-0c-0.09,0.016 -0.182,0.025 -0.276,0.025c-0.828,-0 -1.5,-0.672 -1.5,-1.5c-0,-0.828 0.672,-1.5 1.5,-1.5c0.828,-0 1.5,0.672 1.5,1.5c-0,0.094 -0.009,0.186 -0.025,0.276c-0.102,-0.444 -0.5,-0.776 -0.975,-0.776c-0.552,-0 -1,0.448 -1,1c-0,0.475 0.332,0.873 0.776,0.975Zm17.663,-7.414c0.527,0.863 1.477,1.439 2.561,1.439c0.463,-0 0.902,-0.105 1.293,-0.293l-1,-1c-0.391,0.188 -0.83,0.293 -1.293,0.293c-0.572,-0 -1.107,-0.16 -1.561,-0.439Zm4.177,-4.088l-0.055,-0.034c0.279,0.454 0.439,0.989 0.439,1.561c0,0.463 -0.105,0.902 -0.293,1.293l1,1l0.018,-0.037c0.176,-0.382 0.275,-0.807 0.275,-1.256c0,-1.061 -0.552,-1.994 -1.384,-2.527Zm-23.84,3.502c-0.09,0.016 -0.182,0.025 -0.276,0.025c-0.828,-0 -1.5,-0.672 -1.5,-1.5c0,-0.828 0.672,-1.5 1.5,-1.5c0.828,-0 1.5,0.672 1.5,1.5c0,0.094 -0.009,0.186 -0.025,0.276c-0.102,-0.444 -0.5,-0.776 -0.975,-0.776c-0.552,-0 -1,0.448 -1,1c0,0.475 0.332,0.873 0.776,0.975Zm22,-0c-0.09,0.016 -0.182,0.025 -0.276,0.025c-0.828,-0 -1.5,-0.672 -1.5,-1.5c0,-0.828 0.672,-1.5 1.5,-1.5c0.828,-0 1.5,0.672 1.5,1.5c0,0.094 -0.009,0.186 -0.025,0.276c-0.102,-0.444 -0.5,-0.776 -0.975,-0.776c-0.552,-0 -1,0.448 -1,1c0,0.475 0.332,0.873 0.776,0.975Zm-24.337,-8.414c0.527,0.863 1.477,1.439 2.561,1.439c0.463,-0 0.902,-0.105 1.293,-0.293l-1,-1c-0.391,0.188 -0.83,0.293 -1.293,0.293c-0.572,-0 -1.107,-0.16 -1.561,-0.439Zm24.337,-0.586c-0.09,0.016 -0.182,0.025 -0.276,0.025c-0.828,-0 -1.5,-0.672 -1.5,-1.5c0,-0.828 0.672,-1.5 1.5,-1.5c0.828,-0 1.5,0.672 1.5,1.5c0,0.094 -0.009,0.186 -0.025,0.276c-0.102,-0.444 -0.5,-0.776 -0.975,-0.776c-0.552,-0 -1,0.448 -1,1c0,0.475 0.332,0.873 0.776,0.975Zm-22,-0c-0.09,0.016 -0.182,0.025 -0.276,0.025c-0.828,-0 -1.5,-0.672 -1.5,-1.5c0,-0.828 0.672,-1.5 1.5,-1.5c0.828,-0 1.5,0.672 1.5,1.5c0,0.094 -0.009,0.186 -0.025,0.276c-0.102,-0.444 -0.5,-0.776 -0.975,-0.776c-0.552,-0 -1,0.448 -1,1c0,0.475 0.332,0.873 0.776,0.975Z" style="fill:#fcd935;"/><path d="M85.814,67.038c2.045,-0.144 4.145,0.491 5.813,1.941c1.667,1.45 2.589,3.441 2.73,5.486c0.038,0.551 0.516,0.967 1.067,0.929c0.55,-0.038 0.967,-0.516 0.929,-1.067c-0.177,-2.556 -1.329,-5.045 -3.414,-6.858c-2.085,-1.812 -4.71,-2.607 -7.266,-2.426c-0.551,0.039 -0.966,0.518 -0.927,1.068c0.039,0.551 0.517,0.966 1.068,0.927Zm-43.487,-1.995c-2.556,-0.181 -5.181,0.614 -7.266,2.426c-2.085,1.813 -3.237,4.302 -3.414,6.858c-0.038,0.551 0.379,1.029 0.929,1.067c0.551,0.038 1.029,-0.378 1.067,-0.929c0.141,-2.045 1.063,-4.036 2.73,-5.486c1.668,-1.45 3.768,-2.085 5.813,-1.941c0.551,0.039 1.029,-0.376 1.068,-0.927c0.039,-0.55 -0.376,-1.029 -0.927,-1.068Zm-0.133,-3.385c-3.384,-0.536 -6.972,0.372 -9.757,2.793c-2.785,2.421 -4.183,5.848 -4.123,9.273c0.009,0.552 0.465,0.992 1.017,0.982c0.552,-0.01 0.992,-0.465 0.982,-1.017c-0.05,-2.855 1.115,-5.711 3.436,-7.729c2.321,-2.018 5.312,-2.773 8.132,-2.327c0.545,0.087 1.058,-0.286 1.144,-0.831c0.086,-0.545 -0.286,-1.058 -0.831,-1.144Zm43.925,1.975c2.82,-0.446 5.811,0.309 8.132,2.327c2.321,2.018 3.486,4.874 3.436,7.729c-0.01,0.552 0.43,1.007 0.982,1.017c0.552,0.01 1.008,-0.43 1.017,-0.982c0.06,-3.425 -1.338,-6.852 -4.123,-9.273c-2.785,-2.421 -6.373,-3.329 -9.757,-2.793c-0.545,0.086 -0.917,0.599 -0.831,1.144c0.086,0.545 0.599,0.918 1.144,0.831Zm-44.081,-5.3c-4.186,-0.927 -8.744,0.072 -12.225,3.099c-3.482,3.026 -5.106,7.4 -4.77,11.675c0.043,0.55 0.525,0.962 1.075,0.919c0.551,-0.044 0.962,-0.526 0.919,-1.076c-0.288,-3.664 1.103,-7.414 4.088,-10.009c2.985,-2.594 6.892,-3.45 10.481,-2.655c0.538,0.119 1.073,-0.221 1.192,-0.76c0.12,-0.539 -0.221,-1.073 -0.76,-1.193Zm44.356,1.953c3.589,-0.795 7.496,0.061 10.481,2.655c2.985,2.595 4.376,6.345 4.088,10.009c-0.043,0.55 0.368,1.032 0.919,1.076c0.55,0.043 1.032,-0.369 1.075,-0.919c0.336,-4.275 -1.288,-8.649 -4.77,-11.675c-3.481,-3.027 -8.039,-4.026 -12.225,-3.099c-0.539,0.12 -0.88,0.654 -0.76,1.193c0.119,0.539 0.654,0.879 1.192,0.76Zm-13.198,-10.993c-2.202,-2.624 -5.506,-4.293 -9.196,-4.293c-3.69,-0 -6.994,1.669 -9.196,4.293c-0.355,0.423 -0.299,1.054 0.124,1.409c0.422,0.355 1.054,0.3 1.408,-0.123c1.835,-2.187 4.588,-3.579 7.664,-3.579c3.076,-0 5.829,1.392 7.664,3.579c0.354,0.423 0.986,0.478 1.408,0.123c0.423,-0.355 0.479,-0.986 0.124,-1.409Zm2.063,-2.611c-2.551,-3.446 -6.646,-5.682 -11.259,-5.682c-4.613,-0 -8.708,2.236 -11.259,5.682c-0.329,0.444 -0.235,1.071 0.209,1.399c0.443,0.328 1.07,0.235 1.398,-0.209c2.187,-2.955 5.697,-4.872 9.652,-4.872c3.955,-0 7.465,1.917 9.652,4.872c0.328,0.444 0.955,0.537 1.398,0.209c0.444,-0.328 0.538,-0.955 0.209,-1.399Z" style="fill:#41b3e6;"/><path d="M92.937,67.468c1.456,1.677 2.269,3.745 2.416,5.859c0.038,0.551 -0.379,1.029 -0.929,1.067c-0.024,0.001 -0.048,0.002 -0.072,0.002l0.005,0.069c0.038,0.551 0.516,0.967 1.067,0.929c0.55,-0.038 0.967,-0.516 0.929,-1.067c-0.177,-2.556 -1.329,-5.045 -3.414,-6.858l-0.002,-0.001Zm-50.68,-2.429c-0,0.024 -0.001,0.048 -0.003,0.072c-0.039,0.551 -0.517,0.966 -1.068,0.927c-2.045,-0.144 -4.145,0.491 -5.813,1.941c-1.667,1.45 -2.589,3.441 -2.73,5.486c-0.037,0.527 -0.477,0.931 -0.998,0.931c-0,0.521 0.404,0.961 0.931,0.998c0.551,0.038 1.029,-0.378 1.067,-0.929c0.141,-2.045 1.063,-4.036 2.73,-5.486c1.668,-1.45 3.768,-2.085 5.813,-1.941c0.551,0.039 1.029,-0.376 1.068,-0.927c0.039,-0.55 -0.376,-1.029 -0.927,-1.068l-0.07,-0.004Zm-0.22,-3.405c0.001,0.055 -0.003,0.111 -0.012,0.168c-0.086,0.545 -0.599,0.918 -1.144,0.831c-2.82,-0.446 -5.811,0.309 -8.132,2.327c-2.321,2.018 -3.486,4.874 -3.436,7.729c0.01,0.552 -0.43,1.007 -0.982,1.017l-0.018,0l0.001,0.018c0.009,0.552 0.465,0.992 1.017,0.982c0.552,-0.01 0.992,-0.465 0.982,-1.017c-0.05,-2.855 1.115,-5.711 3.436,-7.729c2.321,-2.018 5.312,-2.773 8.132,-2.327c0.545,0.087 1.058,-0.286 1.144,-0.831c0.086,-0.545 -0.286,-1.058 -0.831,-1.144c-0.052,-0.008 -0.104,-0.016 -0.157,-0.024Zm53.631,2.909c2.049,2.305 3.07,5.243 3.018,8.181c-0.009,0.546 -0.455,0.982 -0.999,0.982c-0.001,0.544 0.436,0.991 0.982,1c0.552,0.01 1.008,-0.43 1.017,-0.982c0.059,-3.382 -1.303,-6.765 -4.018,-9.181Zm-53.846,-6.256c0.002,0.079 -0.006,0.159 -0.024,0.239c-0.119,0.539 -0.654,0.879 -1.192,0.76c-3.589,-0.795 -7.496,0.061 -10.481,2.655c-2.985,2.595 -4.376,6.345 -4.088,10.009c0.043,0.55 -0.368,1.032 -0.919,1.076c-0.027,0.002 -0.054,0.003 -0.081,0.003l0.006,0.078c0.043,0.55 0.525,0.962 1.075,0.919c0.551,-0.044 0.962,-0.526 0.919,-1.076c-0.288,-3.664 1.103,-7.414 4.088,-10.009c2.985,-2.594 6.892,-3.45 10.481,-2.655c0.538,0.119 1.073,-0.221 1.192,-0.76c0.12,-0.539 -0.221,-1.073 -0.76,-1.193c-0.072,-0.016 -0.144,-0.031 -0.216,-0.046Zm56.576,3.332c2.644,2.924 3.853,6.744 3.559,10.488c-0.041,0.524 -0.48,0.922 -0.997,0.922c-0.001,0.517 0.398,0.955 0.922,0.997c0.55,0.043 1.032,-0.369 1.075,-0.919c0.329,-4.188 -1.223,-8.47 -4.559,-11.488Zm-13.655,4.422c0,0.023 0.001,0.047 0.003,0.07c0.039,0.551 0.517,0.966 1.068,0.927c2,-0.141 4.053,0.464 5.703,1.847c-0.268,-0.32 -0.565,-0.623 -0.89,-0.906c-1.668,-1.45 -3.768,-2.085 -5.813,-1.941c-0.024,0.002 -0.047,0.003 -0.071,0.003Zm0.22,-3.395c-0,0.051 0.004,0.103 0.012,0.156c0.086,0.545 0.599,0.918 1.144,0.831c2.819,-0.446 5.809,0.309 8.13,2.325c-0.305,-0.351 -0.638,-0.684 -0.998,-0.998c-2.321,-2.018 -5.312,-2.773 -8.132,-2.327c-0.053,0.009 -0.105,0.013 -0.156,0.013Zm0.215,-3.336c-0,0.071 0.008,0.144 0.024,0.216c0.119,0.539 0.654,0.879 1.192,0.76c3.589,-0.795 7.496,0.061 10.481,2.655c0.035,0.031 0.07,0.062 0.105,0.093c-0.34,-0.383 -0.708,-0.748 -1.105,-1.093c-2.985,-2.594 -6.892,-3.45 -10.481,-2.655c-0.072,0.016 -0.145,0.024 -0.216,0.024Zm-13.209,-11.28c0.077,0.087 0.152,0.175 0.227,0.263c0.355,0.423 0.299,1.054 -0.124,1.409c-0.324,0.272 -0.77,0.303 -1.121,0.112c0.251,0.243 0.489,0.498 0.713,0.765c0.354,0.423 0.986,0.478 1.408,0.123c0.423,-0.355 0.479,-0.986 0.124,-1.409c-0.378,-0.45 -0.788,-0.872 -1.227,-1.263Zm-17.398,1.906c-0,0.285 0.121,0.568 0.357,0.766c0.422,0.355 1.054,0.3 1.408,-0.123c1.835,-2.187 4.588,-3.579 7.664,-3.579c2.505,-0 4.796,0.923 6.552,2.448c-1.834,-2.112 -4.538,-3.448 -7.552,-3.448c-3.076,-0 -5.829,1.392 -7.664,3.579c-0.197,0.235 -0.48,0.357 -0.765,0.357Zm-2.026,-2.659c-0,0.306 0.14,0.608 0.405,0.804c0.272,0.201 0.613,0.244 0.912,0.144c0.362,-0.425 0.754,-0.825 1.172,-1.197c2.198,-2.47 5.402,-4.028 8.966,-4.028c3.057,0 5.849,1.146 7.969,3.031c-2.199,-2.472 -5.403,-4.031 -8.969,-4.031c-3.955,0 -7.465,1.917 -9.652,4.872c-0.196,0.265 -0.497,0.405 -0.803,0.405Zm20.84,-2.663c0.309,0.342 0.6,0.698 0.874,1.068c0.329,0.444 0.235,1.071 -0.209,1.399c-0.272,0.202 -0.613,0.244 -0.912,0.144c0.178,0.21 0.35,0.425 0.514,0.647c0.328,0.444 0.955,0.537 1.398,0.209c0.444,-0.328 0.538,-0.955 0.209,-1.399c-0.555,-0.75 -1.183,-1.442 -1.874,-2.068Z" style="fill:#2898d4;"/></svg>